<?xml version="1.0" encoding="UTF-8"?><svg id="Layer_2" xmlns="http://www.w3.org/2000/svg" xmlns:xlink="http://www.w3.org/1999/xlink" viewBox="0 0 32 32"><defs><style>.cls-1{fill:#fff;}.cls-2{fill:url(#linear-gradient);}</style><linearGradient id="linear-gradient" x1="0" y1="16" x2="32" y2="16" gradientTransform="matrix(1, 0, 0, 1, 0, 0)" gradientUnits="userSpaceOnUse"><stop offset="0" stop-color="#409eff"/><stop offset=".28" stop-color="#2d78cd"/><stop offset=".61" stop-color="#195198"/><stop offset=".86" stop-color="#0c3877"/><stop offset="1" stop-color="#082f6b"/></linearGradient></defs><g id="Layer_3"><rect class="cls-2" width="32" height="32"/><g><path class="cls-1" d="M13.86,22.97c-3.84,0-6.97-3.13-6.97-6.97s3.13-6.97,6.97-6.97c1.98,0,3.76,.83,5.03,2.15h1.35c-1.46-1.93-3.78-3.18-6.38-3.18-4.41,0-8,3.59-8,8s3.59,8,8,8c2.6,0,4.92-1.25,6.38-3.18h-1.35c-1.27,1.33-3.06,2.15-5.03,2.15Z"/><g><path class="cls-1" d="M17.39,17.58h2.86l-.17,1.2h-4.85l.14-.99,3.32-3.4h-2.67l.19-1.2h4.61l-.14,.98-3.27,3.41Z"/><path class="cls-1" d="M22.72,17.58h2.86l-.17,1.2h-4.85l.14-.99,3.32-3.4h-2.67l.19-1.2h4.61l-.14,.98-3.27,3.41Z"/></g></g></g></svg>