<svg xmlns="http://www.w3.org/2000/svg" xmlns:xlink="http://www.w3.org/1999/xlink" viewBox="0 0 391.28 119.8"><defs><style>.cls-1{fill:url(#linear-gradient);}.cls-2{fill:#030a2e;}</style><linearGradient id="linear-gradient" x1="85.06" y1="14.28" x2="31.59" y2="103.87" gradientUnits="userSpaceOnUse"><stop offset="0" stop-color="#409eff"/><stop offset="0.28" stop-color="#2d79cd"/><stop offset="0.61" stop-color="#195198"/><stop offset="0.86" stop-color="#0d3877"/><stop offset="1" stop-color="#082f6b"/></linearGradient></defs><g id="Layer_2" data-name="Layer 2"><g id="Layer_3" data-name="Layer 3"><path class="cls-1" d="M58,110.48A50.58,50.58,0,1,1,94.55,24.94h9.78a58,58,0,1,0,0,69.92H94.55A50.43,50.43,0,0,1,58,110.48Z"/><path class="cls-2" d="M83.6,71.37h20.74l-1.27,8.72H67.87l1-7.16L93,48.25H73.61L75,39.52h33.42l-1.05,7.09Z"/><path class="cls-2" d="M122.3,71.37H143l-1.27,8.72h-35.2l1-7.16,24.09-24.68H112.3l1.34-8.73h33.42L146,46.61Z"/><path class="cls-2" d="M182.9,48h20.73l-1.27,8.73h-35.2l1-7.16,24.09-24.69H172.9l1.34-8.72h33.42l-1,7.08Z"/><path class="cls-2" d="M209.67,38.49,213,16.11h10.51L220,39.31c-.82,5.37,1.79,8.8,6.56,8.8,5.37,0,8.88-3.51,9.85-9.77l3.35-22.23h10.52L247,38.49c-2,12.9-9.69,19.24-21.4,19.24C214.15,57.73,207.81,50.94,209.67,38.49Z"/><path class="cls-2" d="M293.35,21.33c3.36,4.1,4.7,9.25,3.88,15.37a24.89,24.89,0,0,1-7.31,15.14,20.77,20.77,0,0,1-15,5.89,14.57,14.57,0,0,1-12.75-6.86l-.82,5.89H251.14L259.57,0l10.51.07L267,20.44a18.2,18.2,0,0,1,12.83-5.37A16.36,16.36,0,0,1,293.35,21.33Zm-8.72,6.94A8.91,8.91,0,0,0,277,24.76a12,12,0,0,0-8.5,3.28,13.3,13.3,0,0,0-4.18,8.06,10.82,10.82,0,0,0,1.87,8.58,9.08,9.08,0,0,0,7.68,3.43,12,12,0,0,0,8.43-3.28,13.81,13.81,0,0,0,4.17-8.21A10.68,10.68,0,0,0,284.63,28.27Z"/><path class="cls-2" d="M341.76,21.33c3.36,4.1,4.7,9.25,3.88,15.37a25,25,0,0,1-7.31,15.14,20.77,20.77,0,0,1-15,5.89,14.58,14.58,0,0,1-12.76-6.86l-.82,5.89H299.54L308,0l10.52.07-3.06,20.37a18.22,18.22,0,0,1,12.83-5.37A16.38,16.38,0,0,1,341.76,21.33ZM333,28.27a8.89,8.89,0,0,0-7.6-3.51A12,12,0,0,0,316.92,28a13.24,13.24,0,0,0-4.17,8.06,10.78,10.78,0,0,0,1.86,8.58,9.09,9.09,0,0,0,7.68,3.43,12,12,0,0,0,8.43-3.28,13.88,13.88,0,0,0,4.18-8.21A10.68,10.68,0,0,0,333,28.27Z"/><path class="cls-2" d="M379.72,16.11h11.56L369.13,57.8c-6,11.27-11.93,16.26-19.76,16.26a14.12,14.12,0,0,1-8.21-2.31l3.06-8.5a10.54,10.54,0,0,0,4.92,1.27c3.81,0,6.42-2,9.18-6.57L359.51,56l-11.63-39.9h12l6.57,26.48Z"/><path class="cls-2" d="M176.37,110H197.1l-1.26,8.73H160.63l1.05-7.16,24.09-24.69h-19.4l1.35-8.73h33.41l-1,7.09Z"/><path class="cls-2" d="M213.51,118.76H203l6-40.65h10.51Zm-4-52a7.21,7.21,0,0,1,7.09-6.11,5.61,5.61,0,0,1,5.82,6.78,7.13,7.13,0,0,1-7,6.12A5.63,5.63,0,0,1,209.48,66.77Z"/><path class="cls-2" d="M233.28,118.76H222.76l8.43-56.69H241.7Z"/><path class="cls-2" d="M253,118.76H242.45l8.43-56.69h10.51Z"/><path class="cls-2" d="M272.8,118.76H262.29l6-40.65h10.52Zm-4-52a7.2,7.2,0,0,1,7.08-6.11,5.6,5.6,0,0,1,5.82,6.78,7.13,7.13,0,0,1-7,6.12A5.63,5.63,0,0,1,268.78,66.77Z"/><path class="cls-2" d="M286.68,113.39c-3.51-4.33-4.7-9.55-3.73-15.66A24.51,24.51,0,0,1,307.34,77c6.56,0,11.56,2.24,15.06,6.64s4.63,9.84,3.43,16.18a23.69,23.69,0,0,1-8.5,14.4,24,24,0,0,1-15.66,5.59C295.18,119.8,290.18,117.64,286.68,113.39ZM311,106.68a13.77,13.77,0,0,0,4.55-8.21,10.24,10.24,0,0,0-1.86-8.28,8.8,8.8,0,0,0-7.39-3.43A12.44,12.44,0,0,0,297.94,90a13.22,13.22,0,0,0-4.55,8,10.57,10.57,0,0,0,1.72,8.51,8.65,8.65,0,0,0,7.38,3.5A12.55,12.55,0,0,0,311,106.68Z"/><path class="cls-2" d="M330.16,118.76l6-40.65h10.29l-.82,5.67A16.69,16.69,0,0,1,359.32,77c4.48,0,8.06,1.49,10.67,4.55s3.5,7.46,2.61,13.35l-3.51,23.87H358.58l3.28-22.23c1-6.34-1.72-9.84-6.86-9.84-5.75,0-10.22,4.47-11.34,11.63l-3,20.44Z"/></g></g></svg>