<svg xmlns="http://www.w3.org/2000/svg" viewBox="0 0 313 95.83"><g id="Layer_2" data-name="Layer 2"><g id="Layer_9" data-name="Layer 9"><path d="M46.42,88.38A40.46,40.46,0,1,1,75.64,20h7.82a46.43,46.43,0,1,0,0,55.93H75.64A40.35,40.35,0,0,1,46.42,88.38Z"/><path d="M66.88,57.09H83.46l-1,7H54.29l.83-5.73L74.4,38.59H58.88l1.08-7H86.69l-.84,5.67Z"/><path d="M97.83,57.09h16.58l-1,7H85.24l.83-5.73,19.28-19.75H89.83l1.08-7h26.73l-.84,5.67Z"/><path d="M146.3,38.42h16.59l-1,7H133.71l.84-5.72,19.27-19.75H138.31l1.07-7h26.73l-.83,5.67Z"/><path d="M167.72,30.79l2.69-17.9h8.41L176,31.44c-.66,4.3,1.43,7,5.25,7,4.29,0,7.1-2.8,7.87-7.81l2.69-17.78h8.41l-2.69,17.9c-1.61,10.32-7.75,15.39-17.12,15.39C171.3,46.18,166.23,40.75,167.72,30.79Z"/><path d="M234.66,17.06c2.69,3.29,3.76,7.4,3.11,12.29a20,20,0,0,1-5.85,12.12,16.62,16.62,0,0,1-12,4.71,11.67,11.67,0,0,1-10.21-5.49l-.65,4.71h-8.18L207.64,0l8.41.06L213.6,16.35a14.57,14.57,0,0,1,10.26-4.3A13.1,13.1,0,0,1,234.66,17.06Zm-7,5.55a7.11,7.11,0,0,0-6.08-2.8,9.59,9.59,0,0,0-6.8,2.62,10.62,10.62,0,0,0-3.35,6.45,8.64,8.64,0,0,0,1.5,6.86,7.25,7.25,0,0,0,6.14,2.74,9.55,9.55,0,0,0,6.74-2.62,11,11,0,0,0,3.34-6.57A8.56,8.56,0,0,0,227.68,22.61Z"/><path d="M273.38,17.06c2.69,3.29,3.76,7.4,3.11,12.29a20,20,0,0,1-5.85,12.12,16.62,16.62,0,0,1-12,4.71,11.67,11.67,0,0,1-10.21-5.49l-.65,4.71h-8.18L246.36,0l8.41.06-2.45,16.29a14.57,14.57,0,0,1,10.26-4.3A13.1,13.1,0,0,1,273.38,17.06Zm-7,5.55a7.11,7.11,0,0,0-6.08-2.8,9.59,9.59,0,0,0-6.8,2.62,10.62,10.62,0,0,0-3.35,6.45,8.64,8.64,0,0,0,1.5,6.86,7.25,7.25,0,0,0,6.14,2.74,9.55,9.55,0,0,0,6.74-2.62,11,11,0,0,0,3.34-6.57A8.52,8.52,0,0,0,266.4,22.61Z"/><path d="M303.75,12.89H313L295.28,46.24c-4.83,9-9.55,13-15.81,13a11.32,11.32,0,0,1-6.56-1.85l2.44-6.81a8.38,8.38,0,0,0,3.94,1c3,0,5.13-1.61,7.34-5.25l.95-1.55-9.3-31.92h9.6l5.25,21.18Z"/><path d="M141.08,88h16.59l-1,7H128.49l.84-5.73L148.6,69.52H133.09l1.07-7h26.73l-.83,5.67Z"/><path d="M170.79,95h-8.41l4.83-32.52h8.42Zm-3.22-41.59a5.77,5.77,0,0,1,5.67-4.89A4.49,4.49,0,0,1,177.89,54a5.7,5.7,0,0,1-5.6,4.89A4.5,4.5,0,0,1,167.57,53.41Z"/><path d="M186.6,95h-8.41l6.74-45.35h8.42Z"/><path d="M202.35,95h-8.41l6.74-45.35h8.42Z"/><path d="M218.22,95h-8.41l4.83-32.52h8.42ZM215,53.41a5.77,5.77,0,0,1,5.67-4.89A4.49,4.49,0,0,1,225.32,54a5.7,5.7,0,0,1-5.6,4.89A4.5,4.5,0,0,1,215,53.41Z"/><path d="M229.32,90.7c-2.8-3.46-3.76-7.63-3-12.53A19,19,0,0,1,233,66.3a19.23,19.23,0,0,1,12.89-4.71c5.25,0,9.25,1.79,12,5.31s3.7,7.87,2.74,12.94a19,19,0,0,1-6.8,11.52,19.21,19.21,0,0,1-12.53,4.47C236.12,95.83,232.13,94.1,229.32,90.7Zm19.45-5.37a11,11,0,0,0,3.64-6.56,8.18,8.18,0,0,0-1.49-6.62A7,7,0,0,0,245,69.4,10,10,0,0,0,238.33,72a10.56,10.56,0,0,0-3.64,6.38,8.46,8.46,0,0,0,1.37,6.8A7,7,0,0,0,242,88,10,10,0,0,0,248.77,85.33Z"/><path d="M264.1,95l4.84-32.52h8.23L276.51,67a13.34,13.34,0,0,1,10.92-5.43A10.61,10.61,0,0,1,296,65.23c2.09,2.44,2.81,6,2.09,10.68L295.25,95h-8.41l2.62-17.78c.78-5.07-1.37-7.88-5.49-7.88-4.59,0-8.17,3.58-9.07,9.31L272.52,95Z"/></g></g></svg>